# xmcd
#
# Track frame offsets:
#	150
#	19805
#	31845
#	43760
#	57640
#	68567
#	83010
#	106640
#	120765
#	133767
#	151557
#	163195
#	179447
#	199325
#	218727
#	243722
#	264860
#	280385
#
# Disc length: 4125 seconds
#
# Revision: 5
# Processed by: cddbd v1.5.1PL0 Copyright (c) Steve Scherf et al.
# Submitted via: audiograbber 1.83.01
#
DISCID=f2101b12
DTITLE=Various Artist - Night On The Delta
DYEAR=1999
DGENRE=Blues
TTITLE0=Son House - Death Letter
TTITLE1=Bukka White - Parchman Farm Blues
TTITLE2=Robert Johnson - When You Got A Good Friend
TTITLE3=Memphis Minnie - Hoodoo Lady
TTITLE4=Leadbelly - Good Morning Blues
TTITLE5=Lightin' Hopkins - See See Rider
TTITLE6=Skip James - Devil Got My Woman
TTITLE7=Big Joe Williams - Baby Please Don't Go
TTITLE8=Mississippi John Hurt - I'm Satisfied
TTITLE9=Mance Lipscomb - Night Time Is The Right Time
TTITLE10=Chris Whiley - Ball Peen Hammer
TTITLE11=Peter Kern - Young And Restless
TTITLE12=Taj Mahal - Spike Driver Blues
TTITLE13=Guitar Gabriel - I Came So Far
TTITLE14=Neal Pattman - Shortnin' Bread
TTITLE15=Preston Fulp - Careless Love
TTITLE16=Captain Luke - Angels Of Mercy
TTITLE17=Kelly Joe Phelps - Piece By Piece
EXTD=
EXTT0=
EXTT1=
EXTT2=
EXTT3=
EXTT4=
EXTT5=
EXTT6=
EXTT7=
EXTT8=
EXTT9=
EXTT10=
EXTT11=
EXTT12=
EXTT13=
EXTT14=
EXTT15=
EXTT16=
EXTT17=
PLAYORDER=
